<svg id="Symbole_10_1" data-name="Symbole 10 – 1" xmlns="http://www.w3.org/2000/svg" viewBox="-1640 3386 613.5 613.5">
  <defs>
    <style>
      .cls-1 {
        fill: #fff;
        stroke: #95989a;
      }
    </style>
  </defs>
  <path id="Union_16" data-name="Union 16" class="cls-1" d="M89.7,522.8A306.25,306.25,0,1,1,522.8,89.7,306.25,306.25,0,1,1,89.7,522.8ZM26.017,306.249c0,154.521,125.711,280.233,280.232,280.233S586.482,460.77,586.482,306.249,460.77,26.017,306.249,26.017,26.017,151.728,26.017,306.249Zm280.512,22.5L184.263,451.018l-22.23-22.23L284.3,306.522,162.033,184.257l22.23-22.23L306.529,284.292,428.794,162.027l22.23,22.23L328.759,306.522,451.024,428.787l-22.23,22.231Z" transform="translate(-1639.5 3386.5)"/>
</svg>
